<mxfile host="app.diagrams.net" modified="2021-06-30T06:39:26.844Z" agent="5.0 (Macintosh; Intel Mac OS X 10_15_7) AppleWebKit/537.36 (KHTML, like Gecko) Chrome/91.0.4472.114 Safari/537.36" etag="7cJj9Q_l6MFWqZ9yHB9m" version="14.8.2" type="github">
  <diagram id="t6u6sFp4Q8MImZV2FgV0" name="Page-1">
    <mxGraphModel dx="378" dy="246" grid="1" gridSize="10" guides="1" tooltips="1" connect="1" arrows="1" fold="1" page="1" pageScale="1" pageWidth="850" pageHeight="1100" math="0" shadow="0">
      <root>
        <mxCell id="0" />
        <mxCell id="1" parent="0" />
        <mxCell id="OG7HBV8m11MwtrWSij0R-9" value="" style="rounded=1;whiteSpace=wrap;html=1;dashed=1;" vertex="1" parent="1">
          <mxGeometry x="147" y="200" width="185" height="80" as="geometry" />
        </mxCell>
        <mxCell id="OG7HBV8m11MwtrWSij0R-1" value="" style="endArrow=classic;html=1;strokeWidth=2;exitX=0.347;exitY=1.027;exitDx=0;exitDy=0;exitPerimeter=0;" edge="1" parent="1">
          <mxGeometry width="50" height="50" relative="1" as="geometry">
            <mxPoint x="180.41000000000008" y="160.81" as="sourcePoint" />
            <mxPoint x="180" y="230" as="targetPoint" />
          </mxGeometry>
        </mxCell>
        <mxCell id="OG7HBV8m11MwtrWSij0R-2" value="" style="endArrow=classic;html=1;strokeWidth=2;" edge="1" parent="1">
          <mxGeometry width="50" height="50" relative="1" as="geometry">
            <mxPoint x="220" y="160" as="sourcePoint" />
            <mxPoint x="220" y="230" as="targetPoint" />
          </mxGeometry>
        </mxCell>
        <mxCell id="OG7HBV8m11MwtrWSij0R-3" value="" style="endArrow=classic;html=1;strokeWidth=2;" edge="1" parent="1">
          <mxGeometry width="50" height="50" relative="1" as="geometry">
            <mxPoint x="260" y="160" as="sourcePoint" />
            <mxPoint x="260" y="230" as="targetPoint" />
          </mxGeometry>
        </mxCell>
        <mxCell id="OG7HBV8m11MwtrWSij0R-4" value="" style="endArrow=classic;html=1;strokeWidth=2;" edge="1" parent="1">
          <mxGeometry width="50" height="50" relative="1" as="geometry">
            <mxPoint x="299" y="160" as="sourcePoint" />
            <mxPoint x="299" y="230" as="targetPoint" />
          </mxGeometry>
        </mxCell>
        <mxCell id="OG7HBV8m11MwtrWSij0R-10" value="controller logic" style="rounded=1;whiteSpace=wrap;html=1;" vertex="1" parent="1">
          <mxGeometry x="170" y="230" width="140" height="40" as="geometry" />
        </mxCell>
        <mxCell id="OG7HBV8m11MwtrWSij0R-12" value="&lt;font style=&quot;font-size: 6px&quot;&gt;req1&lt;/font&gt;" style="text;html=1;strokeColor=none;fillColor=none;align=center;verticalAlign=middle;whiteSpace=wrap;rounded=0;fontSize=6;" vertex="1" parent="1">
          <mxGeometry x="170" y="135" width="20" height="20" as="geometry" />
        </mxCell>
        <mxCell id="OG7HBV8m11MwtrWSij0R-13" value="&lt;font style=&quot;font-size: 11px&quot;&gt;req2&lt;/font&gt;" style="text;html=1;strokeColor=none;fillColor=none;align=center;verticalAlign=middle;whiteSpace=wrap;rounded=0;" vertex="1" parent="1">
          <mxGeometry x="206" y="130" width="30" height="30" as="geometry" />
        </mxCell>
        <mxCell id="OG7HBV8m11MwtrWSij0R-14" value="&lt;font style=&quot;font-size: 11px&quot;&gt;req3&lt;/font&gt;" style="text;html=1;strokeColor=none;fillColor=none;align=center;verticalAlign=middle;whiteSpace=wrap;rounded=0;" vertex="1" parent="1">
          <mxGeometry x="247" y="130" width="30" height="30" as="geometry" />
        </mxCell>
        <mxCell id="OG7HBV8m11MwtrWSij0R-15" value="&lt;font style=&quot;font-size: 11px&quot;&gt;req4&lt;/font&gt;" style="text;html=1;strokeColor=none;fillColor=none;align=center;verticalAlign=middle;whiteSpace=wrap;rounded=0;" vertex="1" parent="1">
          <mxGeometry x="286" y="130" width="30" height="30" as="geometry" />
        </mxCell>
        <mxCell id="OG7HBV8m11MwtrWSij0R-16" value="" style="endArrow=classic;html=1;strokeWidth=2;exitX=0.5;exitY=1;exitDx=0;exitDy=0;" edge="1" parent="1" source="OG7HBV8m11MwtrWSij0R-10">
          <mxGeometry width="50" height="50" relative="1" as="geometry">
            <mxPoint x="240" y="320" as="sourcePoint" />
            <mxPoint x="150" y="320" as="targetPoint" />
          </mxGeometry>
        </mxCell>
        <mxCell id="OG7HBV8m11MwtrWSij0R-17" value="" style="endArrow=classic;html=1;strokeWidth=2;" edge="1" parent="1">
          <mxGeometry width="50" height="50" relative="1" as="geometry">
            <mxPoint x="240" y="270" as="sourcePoint" />
            <mxPoint x="240" y="320" as="targetPoint" />
          </mxGeometry>
        </mxCell>
        <mxCell id="OG7HBV8m11MwtrWSij0R-18" value="" style="endArrow=classic;html=1;strokeWidth=2;" edge="1" parent="1">
          <mxGeometry width="50" height="50" relative="1" as="geometry">
            <mxPoint x="240" y="270" as="sourcePoint" />
            <mxPoint x="330" y="320" as="targetPoint" />
          </mxGeometry>
        </mxCell>
        <mxCell id="OG7HBV8m11MwtrWSij0R-19" value="" style="rounded=1;whiteSpace=wrap;html=1;dashed=1;" vertex="1" parent="1">
          <mxGeometry x="110" y="320" width="80" height="120" as="geometry" />
        </mxCell>
        <mxCell id="OG7HBV8m11MwtrWSij0R-20" value="" style="rounded=1;whiteSpace=wrap;html=1;dashed=1;" vertex="1" parent="1">
          <mxGeometry x="200" y="320" width="80" height="120" as="geometry" />
        </mxCell>
        <mxCell id="OG7HBV8m11MwtrWSij0R-21" value="" style="rounded=1;whiteSpace=wrap;html=1;dashed=1;" vertex="1" parent="1">
          <mxGeometry x="290" y="320" width="80" height="120" as="geometry" />
        </mxCell>
      </root>
    </mxGraphModel>
  </diagram>
</mxfile>
